<svg version="1.1" viewBox="0.0 0.0 960.0 720.0" fill="none" stroke="none" stroke-linecap="square" stroke-miterlimit="10" xmlns:xlink="http://www.w3.org/1999/xlink" xmlns="http://www.w3.org/2000/svg"><clipPath id="p.0"><path d="m0 0l960.0 0l0 720.0l-960.0 0l0 -720.0z" clip-rule="nonzero"/></clipPath><g clip-path="url(#p.0)"><path fill="#000000" fill-opacity="0.0" d="m0 0l960.0 0l0 720.0l-960.0 0z" fill-rule="evenodd"/><path fill="#b7b7b7" d="m164.26247 199.18636l0 0c0 -20.917252 16.956772 -37.874023 37.874023 -37.874023l0 0c10.0448 0 19.678207 3.9902954 26.78096 11.093048c7.102768 7.1027527 11.093048 16.73616 11.093048 26.780975l0 0c0 20.917236 -16.956772 37.87401 -37.87401 37.87401l0 0c-20.917252 0 -37.874023 -16.956772 -37.874023 -37.87401z" fill-rule="evenodd"/><path stroke="#000000" stroke-width="1.0" stroke-linejoin="round" stroke-linecap="butt" d="m164.26247 199.18636l0 0c0 -20.917252 16.956772 -37.874023 37.874023 -37.874023l0 0c10.0448 0 19.678207 3.9902954 26.78096 11.093048c7.102768 7.1027527 11.093048 16.73616 11.093048 26.780975l0 0c0 20.917236 -16.956772 37.87401 -37.87401 37.87401l0 0c-20.917252 0 -37.874023 -16.956772 -37.874023 -37.87401z" fill-rule="evenodd"/><path fill="#000000" d="m200.88074 209.80948l0 -4.734375q-0.375 0.546875 -1.0625 0.90625q-0.6875 0.34375 -1.46875 0.34375q-1.71875 0 -2.96875 -1.375q-1.234375 -1.375 -1.234375 -3.765625q0 -1.46875 0.5 -2.625q0.515625 -1.15625 1.46875 -1.75q0.96875 -0.59375 2.109375 -0.59375q1.796875 0 2.828125 1.515625l0 -1.296875l1.46875 0l0 13.375l-1.640625 0zm-5.046875 -8.5625q0 1.859375 0.78125 2.796875q0.78125 0.9375 1.875 0.9375q1.046875 0 1.796875 -0.890625q0.765625 -0.890625 0.765625 -2.703125q0 -1.9375 -0.796875 -2.90625q-0.796875 -0.96875 -1.875 -0.96875q-1.0625 0 -1.8125 0.90625q-0.734375 0.90625 -0.734375 2.828125z" fill-rule="nonzero"/><path fill="#000000" d="m204.38145 208.71573q0 -1.578125 0.328125 -2.53125q0.328125 -0.96875 0.96875 -1.484375q0.640625 -0.53125 1.609375 -0.53125q0.71875 0 1.25 0.296875q0.546875 0.28125 0.890625 0.828125q0.359375 0.53125 0.5625 1.3125q0.203125 0.78125 0.203125 2.109375q0 1.5625 -0.328125 2.53125q-0.328125 0.953125 -0.96875 1.484375q-0.640625 0.53125 -1.609375 0.53125q-1.296875 0 -2.03125 -0.921875q-0.875 -1.109375 -0.875 -3.625zm1.125 0q0 2.1875 0.515625 2.921875q0.515625 0.71875 1.265625 0.71875q0.75 0 1.265625 -0.71875q0.515625 -0.734375 0.515625 -2.921875q0 -2.203125 -0.515625 -2.921875q-0.515625 -0.71875 -1.28125 -0.71875q-0.75 0 -1.203125 0.640625q-0.5625 0.8125 -0.5625 3.0z" fill-rule="nonzero"/><path fill="#b7b7b7" d="m381.9029 199.18636l0 0c0 -20.917252 16.956757 -37.874023 37.874023 -37.874023l0 0c10.0448 0 19.678192 3.9902954 26.780945 11.093048c7.102783 7.1027527 11.093048 16.73616 11.093048 26.780975l0 0c0 20.917236 -16.956757 37.87401 -37.873993 37.87401l0 0c-20.917267 0 -37.874023 -16.956772 -37.874023 -37.87401z" fill-rule="evenodd"/><path stroke="#000000" stroke-width="1.0" stroke-linejoin="round" stroke-linecap="butt" d="m381.9029 199.18636l0 0c0 -20.917252 16.956757 -37.874023 37.874023 -37.874023l0 0c10.0448 0 19.678192 3.9902954 26.780945 11.093048c7.102783 7.1027527 11.093048 16.73616 11.093048 26.780975l0 0c0 20.917236 -16.956757 37.87401 -37.873993 37.87401l0 0c-20.917267 0 -37.874023 -16.956772 -37.874023 -37.87401z" fill-rule="evenodd"/><path fill="#000000" d="m418.52115 209.80948l0 -4.734375q-0.375 0.546875 -1.0625 0.90625q-0.6875 0.34375 -1.46875 0.34375q-1.71875 0 -2.96875 -1.375q-1.234375 -1.375 -1.234375 -3.765625q0 -1.46875 0.5 -2.625q0.515625 -1.15625 1.46875 -1.75q0.96875 -0.59375 2.109375 -0.59375q1.796875 0 2.828125 1.515625l0 -1.296875l1.46875 0l0 13.375l-1.640625 0zm-5.046875 -8.5625q0 1.859375 0.78125 2.796875q0.78125 0.9375 1.875 0.9375q1.046875 0 1.796875 -0.890625q0.765625 -0.890625 0.765625 -2.703125q0 -1.9375 -0.796875 -2.90625q-0.796875 -0.96875 -1.875 -0.96875q-1.0625 0 -1.8125 0.90625q-0.734375 0.90625 -0.734375 2.828125z" fill-rule="nonzero"/><path fill="#000000" d="m426.14688 213.10635l-1.09375 0l0 -6.96875q-0.40625 0.375 -1.046875 0.75q-0.640625 0.375 -1.140625 0.578125l0 -1.0625q0.90625 -0.4375 1.59375 -1.046875q0.6875 -0.609375 0.96875 -1.1875l0.71875 0l0 8.9375z" fill-rule="nonzero"/><path fill="#000000" fill-opacity="0.0" d="m374.65878 199.18636l0 0c0 -24.918045 20.200073 -45.11812 45.118134 -45.11812l0 0c11.966064 0 23.442017 4.7535095 31.90332 13.214798c8.461273 8.461288 13.214783 19.937256 13.214783 31.90332l0 0c0 24.918045 -20.200073 45.118103 -45.118103 45.118103l0 0c-24.91806 0 -45.118134 -20.200058 -45.118134 -45.118103z" fill-rule="evenodd"/><path stroke="#000000" stroke-width="1.0" stroke-linejoin="round" stroke-linecap="butt" d="m374.65878 199.18636l0 0c0 -24.918045 20.200073 -45.11812 45.118134 -45.11812l0 0c11.966064 0 23.442017 4.7535095 31.90332 13.214798c8.461273 8.461288 13.214783 19.937256 13.214783 31.90332l0 0c0 24.918045 -20.200073 45.118103 -45.118103 45.118103l0 0c-24.91806 0 -45.118134 -20.200058 -45.118134 -45.118103z" fill-rule="evenodd"/><path fill="#000000" d="m418.52115 209.80948l0 -4.734375q-0.375 0.546875 -1.0625 0.90625q-0.6875 0.34375 -1.46875 0.34375q-1.71875 0 -2.96875 -1.375q-1.234375 -1.375 -1.234375 -3.765625q0 -1.46875 0.5 -2.625q0.515625 -1.15625 1.46875 -1.75q0.96875 -0.59375 2.109375 -0.59375q1.796875 0 2.828125 1.515625l0 -1.296875l1.46875 0l0 13.375l-1.640625 0zm-5.046875 -8.5625q0 1.859375 0.78125 2.796875q0.78125 0.9375 1.875 0.9375q1.046875 0 1.796875 -0.890625q0.765625 -0.890625 0.765625 -2.703125q0 -1.9375 -0.796875 -2.90625q-0.796875 -0.96875 -1.875 -0.96875q-1.0625 0 -1.8125 0.90625q-0.734375 0.90625 -0.734375 2.828125z" fill-rule="nonzero"/><path fill="#000000" d="m426.14688 213.10635l-1.09375 0l0 -6.96875q-0.40625 0.375 -1.046875 0.75q-0.640625 0.375 -1.140625 0.578125l0 -1.0625q0.90625 -0.4375 1.59375 -1.046875q0.6875 -0.609375 0.96875 -1.1875l0.71875 0l0 8.9375z" fill-rule="nonzero"/><path fill="#000000" fill-opacity="0.0" d="m240.0105 199.18636l134.64566 0" fill-rule="evenodd"/><path stroke="#000000" stroke-width="1.0" stroke-linejoin="round" stroke-linecap="butt" d="m240.0105 199.18636l134.64566 0" fill-rule="evenodd"/><path fill="#000000" fill-opacity="0.0" d="m240.0105 199.18636l134.64566 0" fill-rule="evenodd"/><path stroke="#000000" stroke-width="1.0" stroke-linejoin="round" stroke-linecap="butt" d="m240.0105 199.18636l128.64566 0" fill-rule="evenodd"/><path fill="#000000" stroke="#000000" stroke-width="1.0" stroke-linecap="butt" d="m368.65616 200.83809l4.5381165 -1.6517334l-4.5381165 -1.6517334z" fill-rule="evenodd"/><path fill="#000000" fill-opacity="0.0" d="m295.03543 161.31233l24.59842 0l0 36.881897l-24.59842 0z" fill-rule="evenodd"/><path fill="#000000" d="m304.17606 188.23233l3.53125 -5.03125l-3.265625 -4.640625l2.046875 0l1.484375 2.265625q0.421875 0.640625 0.671875 1.078125q0.40625 -0.59375 0.734375 -1.0625l1.640625 -2.28125l1.953125 0l-3.34375 4.546875l3.59375 5.125l-2.015625 0l-1.984375 -3.0l-0.515625 -0.8125l-2.546875 3.8125l-1.984375 0z" fill-rule="nonzero"/></g></svg>